HIERARCHY
ROOT Hips
{
	OFFSET	0.00	0.00	0.00
	CHANNELS 6 Xposition Yposition Zposition Zrotation Xrotation Yrotation
	JOINT LeftUpLeg
	{
		OFFSET	 0.126116	-0.014019	-0.065224
		CHANNELS 3 Zrotation Xrotation Yrotation
		JOINT LeftLeg
		{
			OFFSET	 0.000000	 0.000000	 0.569914
			CHANNELS 3 Zrotation Xrotation Yrotation
			JOINT LeftFoot
			{
				OFFSET	 0.000000	 0.000000	 0.544423
				CHANNELS 3 Zrotation Xrotation Yrotation
				JOINT LeftToeBase
				{
					OFFSET	 0.000000	 0.000000	 0.207117
					CHANNELS 3 Zrotation Xrotation Yrotation
					End Site
					{
						OFFSET	 0.000000	 0.000000	 0.207117
					}
				}
			}
		}
	}
	JOINT RightUpLeg
	{
		OFFSET	-0.124023	-0.008373	-0.065224
		CHANNELS 3 Zrotation Xrotation Yrotation
		JOINT RightLeg
		{
			OFFSET	 0.000000	 0.000000	 0.570047
			CHANNELS 3 Zrotation Xrotation Yrotation
			JOINT RightFoot
			{
				OFFSET	 0.000000	 0.000000	 0.544354
				CHANNELS 3 Zrotation Xrotation Yrotation
				JOINT RightToeBase
				{
					OFFSET	 0.000000	 0.000000	 0.207540
					CHANNELS 3 Zrotation Xrotation Yrotation
					End Site
					{
						OFFSET	 0.000000	 0.000000	 0.207540
					}
				}
			}
		}
	}
	JOINT Spine
	{
		OFFSET	 0.000184	-0.007763	 0.117403
		CHANNELS 3 Zrotation Xrotation Yrotation
		JOINT Spine1
		{
			OFFSET	 0.000000	 0.000000	 0.137269
			CHANNELS 3 Zrotation Xrotation Yrotation
			JOINT Spine2
			{
				OFFSET	 0.000000	 0.000000	 0.156879
				CHANNELS 3 Zrotation Xrotation Yrotation
				JOINT LeftShoulder
				{
					OFFSET	 0.080501	-0.002496	 0.160144
					CHANNELS 3 Zrotation Xrotation Yrotation
					JOINT LeftArm
					{
						OFFSET	 0.000000	 0.000000	 0.164363
						CHANNELS 3 Zrotation Xrotation Yrotation
						JOINT LeftForeArm
						{
							OFFSET	 0.000000	 0.000000	 0.364576
							CHANNELS 3 Zrotation Xrotation Yrotation
							JOINT LeftHand
							{
								OFFSET	 0.000000	 0.000000	 0.360812
								CHANNELS 3 Zrotation Xrotation Yrotation
								JOINT LeftHandIndex1
								{
									OFFSET	 0.000000	 0.000000	 0.086006
									CHANNELS 3 Zrotation Xrotation Yrotation
									JOINT LeftHandIndex2
									{
										OFFSET	 0.000000	 0.000000	 0.047236
										CHANNELS 3 Zrotation Xrotation Yrotation
										JOINT LeftHandIndex3
										{
											OFFSET	-0.004284	-0.000551	 0.038166
											CHANNELS 3 Zrotation Xrotation Yrotation
											End Site
											{
												OFFSET	-0.004284	-0.000551	 0.038166
											}
										}
									}
								}
							}
						}
					}
				}
				JOINT Neck
				{
					OFFSET	 0.000000	 0.000000	 0.176489
					CHANNELS 3 Zrotation Xrotation Yrotation
					JOINT Head
					{
						OFFSET	 0.000000	-0.001747	 0.077940
						CHANNELS 3 Zrotation Xrotation Yrotation
						End Site
						{
							OFFSET	 0.000000	-0.001747	 0.077940
						}
					}
				}
				JOINT RightShoulder
				{
					OFFSET	-0.080363	 0.000306	 0.159706
					CHANNELS 3 Zrotation Xrotation Yrotation
					JOINT RightArm
					{
						OFFSET	 0.000000	 0.000000	 0.164196
						CHANNELS 3 Zrotation Xrotation Yrotation
						JOINT RightForeArm
						{
							OFFSET	 0.000000	 0.000000	 0.365611
							CHANNELS 3 Zrotation Xrotation Yrotation
							JOINT RightHand
							{
								OFFSET	 0.000000	 0.000000	 0.360648
								CHANNELS 3 Zrotation Xrotation Yrotation
								JOINT RightHandIndex1
								{
									OFFSET	 0.000000	 0.000000	 0.069977
									CHANNELS 3 Zrotation Xrotation Yrotation
									JOINT RightHandIndex2
									{
										OFFSET	 0.000000	 0.000000	 0.052305
										CHANNELS 3 Zrotation Xrotation Yrotation
										JOINT RightHandIndex3
										{
											OFFSET	 0.009002	-0.000782	 0.042196
											CHANNELS 3 Zrotation Xrotation Yrotation
											End Site
											{
												OFFSET	 0.009002	-0.000782	 0.042196
											}
										}
									}
								}
							}
						}
					}
				}
			}
		}
	}
}
MOTION
Frames:    5
Frame Time: 0.03333334
-8.273166	-30.117130	 0.967003	-29.885210	 17.216840	 3.758167	 3.466245	-34.902930	 175.295200	-1.148700	-43.136530	-0.245472	-0.685363	 80.755990	 0.564686	-2.351263	 34.306980	-0.132315	-0.726798	-36.132720	-179.542100	-3.034966	-43.221950	-0.984724	-1.598161	 80.924830	 0.457690	 2.406766	 19.723960	-0.178575	 24.766190	 15.715890	 2.906804	-11.229730	 3.472552	-1.511576	-14.164580	-2.058216	-1.195712	-125.769900	 89.281810	-141.793500	 54.289670	 65.696340	-61.271240	-28.175470	 8.181508	-27.750170	 35.763740	-18.675130	 7.541696	-5.718046	-12.319370	-1.447920	-5.213516	-0.193813	 3.566525	-1.378229	 35.397820	-2.634230	 0.816990	 0.172322	-3.824185	-3.492004	-7.045562	 0.684932	 93.696880	 85.938660	 172.003400	-61.923670	 74.421350	 71.674840	 13.466190	-2.437610	 40.804050	-60.826740	-22.010150	-4.614049	-10.001300	-10.192740	-38.986600	 5.070815	-0.697434	-9.399699	-2.350882	 35.473990	 5.254307
-8.275414	-30.123950	 0.967598	-29.782480	 17.540760	 3.769483	 3.580522	-34.861550	 175.461300	-1.530861	-43.057720	-0.442740	-0.809873	 81.084120	 0.448442	-2.353580	 33.994290	-0.124916	-0.749238	-35.966940	-179.466200	-2.906243	-42.932030	-0.913119	-1.603792	 81.470480	 0.574984	 2.406528	 19.997890	-0.173146	 23.189030	 15.599550	 2.788165	-11.160700	 3.331357	-1.568155	-14.105910	-2.248616	-1.214107	-125.436700	 89.276120	-142.125000	 56.418000	 66.350760	-61.988210	-26.512780	 7.004817	-26.636990	 37.875950	-18.404530	 8.114806	-5.577424	-12.116070	-1.139024	-5.213516	-0.193813	 3.566525	-1.378229	 35.397820	-2.634230	 0.792928	 0.076586	-3.776085	-3.487384	-7.302523	 0.778446	 93.697380	 85.957950	 172.031800	-60.364600	 75.546810	 69.332390	 12.312280	-3.553048	 36.972920	-63.585280	-21.814640	-5.297175	-9.769887	-9.728809	-38.779190	 5.070815	-0.697434	-9.399699	-2.350882	 35.473990	 5.254307
-8.277434	-30.129890	 0.967840	-29.718350	 17.822180	 3.782965	 3.617135	-34.892780	 175.543800	-1.797306	-43.095250	-0.606158	-0.904853	 81.385830	 0.346638	-2.353586	 33.992830	-0.124884	-0.767386	-35.843480	-179.406400	-2.764450	-42.731520	-0.829782	-1.590050	 81.967790	 0.683595	 2.406127	 20.397280	-0.165211	 21.667740	 15.481840	 2.683720	-11.078350	 3.214150	-1.623986	-14.058830	-2.404528	-1.229111	-124.845500	 89.262990	-142.700400	 58.235330	 66.855840	-62.620770	-24.912220	 5.988900	-25.659190	 39.710770	-18.100790	 8.547623	-5.421729	-11.972850	-0.789407	-5.213516	-0.193813	 3.566525	-1.378229	 35.397820	-2.634230	 0.764136	-0.019936	-3.706144	-3.504142	-7.512002	 0.777567	 93.687480	 85.973960	 172.076100	-58.064120	 76.627400	 66.151630	 11.121440	-4.466374	 33.883060	-66.023740	-21.572510	-5.823057	-9.554609	-9.299473	-38.582020	 5.070815	-0.697434	-9.399699	-2.350882	 35.473990	 5.254307
-8.279728	-30.136110	 0.967931	-29.705840	 18.118020	 3.802141	 3.590503	-34.961330	 175.576800	-1.972037	-43.218630	-0.745088	-0.986715	 81.710540	 0.263026	-2.351498	 34.274230	-0.131548	-0.767466	-35.704080	-179.414700	-2.605186	-42.553130	-0.723197	-1.555086	 82.463370	 0.797165	 2.405587	 20.865660	-0.155866	 19.863570	 15.341730	 2.598811	-10.965430	 3.088533	-1.675063	-14.004330	-2.562626	-1.243586	-123.766500	 89.237670	-143.749400	 60.111700	 67.337360	-63.288420	-23.027460	 4.904085	-24.599520	 41.682580	-17.703580	 8.929005	-5.184048	-11.745170	-0.252836	-5.213516	-0.193813	 3.566525	-1.378229	 35.397820	-2.634230	 0.735742	-0.143042	-3.611649	-3.538719	-7.728911	 0.681276	 93.664510	 85.991220	 172.148500	-54.677360	 77.756310	 61.734540	 9.659263	-5.398085	 30.945350	-68.623070	-21.234860	-6.326373	-9.323526	-8.830717	-38.372830	 5.070815	-0.697434	-9.399699	-2.350882	 35.473990	 5.254307
-8.281787	-30.141670	 0.967961	-29.761420	 18.348850	 3.825085	 3.565770	-34.972200	 175.613300	-2.047775	-43.375080	-0.818225	-1.034195	 81.987640	 0.223139	-2.348262	 34.700700	-0.141698	-0.752560	-35.546570	-179.446300	-2.462369	-42.408310	-0.618867	-1.507117	 82.822880	 0.887483	 2.405147	 21.200940	-0.149162	 18.072500	 15.233300	 2.546208	-10.829340	 2.956934	-1.697596	-13.929010	-2.718568	-1.255741	-122.310400	 89.201070	-145.168600	 61.697900	 67.732830	-63.844770	-21.203800	 3.937935	-23.632310	 43.438380	-17.281600	 9.184843	-4.883154	-11.455000	 0.432412	-5.213516	-0.193813	 3.566525	-1.378229	 35.397820	-2.634230	 0.734628	-0.278011	-3.524580	-3.559147	-7.933573	 0.583729	 93.656900	 86.019210	 172.205700	-50.828630	 78.682500	 56.939780	 8.220907	-6.212671	 28.671710	-70.881990	-20.861790	-6.692490	-9.129720	-8.420655	-38.206840	 5.070815	-0.697434	-9.399699	-2.350882	 35.473990	 5.254307
